# xmcd
#
# Track frame offsets:
#	150
#	15811
#	32684
#	54630
#	70574
#	89854
#	113586
#	130943
#	153776
#	174257
#	191708
#	215811
#	232051
#	253935
#	276437
#
# Disc length: 3911 seconds
#
# Revision: 0
# Processed by: cddbd v1.5.2PL0 Copyright (c) Steve Scherf et al.
# Submitted via: dBpowerAMP V4.0
#
DISCID=d20f450f
DTITLE=Наталья Гулькина - Любовное настроение
DYEAR=2004
DGENRE=Pop
TTITLE0=Наталья Гулькина - Мелодия любви
TTITLE1=Наталья Гулькина - Альбатрос
TTITLE2=Наталья Гулькина - Айвенго
TTITLE3=Наталья Гулькина - Это Китай
TTITLE4=Наталья Гулькина - Осенний лист
TTITLE5=Наталья Гулькина - Посвящение
TTITLE6=Наталья Гулькина - Свеча на ветру
TTITLE7=Наталья Гулькина - Ты со мной
TTITLE8=Наталья Гулькина - Сезон утрат
TTITLE9=Наталья Гулькина - Святая любовь
TTITLE10=Наталья Гулькина - Ночь под Рождество
TTITLE11=Наталья Гулькина - Обманщица-ночь
TTITLE12=Наталья Гулькина - Радуга-дуга
TTITLE13=Наталья Гулькина - Надо лишь мечтать
TTITLE14=Наталья Гулькина - Прощай навек
EXTD=
EXTT0=
EXTT1=
EXTT2=
EXTT3=
EXTT4=
EXTT5=
EXTT6=
EXTT7=
EXTT8=
EXTT9=
EXTT10=
EXTT11=
EXTT12=
EXTT13=
EXTT14=
PLAYORDER=
